<svg xmlns="http://www.w3.org/2000/svg" width="22.254" height="16.023" viewBox="0 0 22.254 16.023">
                                    <g id="Group_73350" data-name="Group 73350" transform="translate(-971.516 -273.441)">
                                        <g id="Group_73257" data-name="Group 73257" transform="translate(-9.774 -22.709)">
                                            <g id="card-payment-svgrepo-com" transform="translate(981.29 296.15)">
                                                <path id="Path_24692" data-name="Path 24692" d="M20.7,158.493a.668.668,0,0,0,.668-.668V144.918a.668.668,0,0,0-.668-.668H1.558a.668.668,0,0,0-.668.668v12.907a.668.668,0,0,0,.668.668Zm0,.89H1.558A1.558,1.558,0,0,1,0,157.825V144.918a1.558,1.558,0,0,1,1.558-1.558H20.7a1.558,1.558,0,0,1,1.558,1.558v12.907A1.558,1.558,0,0,1,20.7,159.383Z" transform="translate(0 -143.36)" fill="#8d193c"></path>
                                                <path id="Path_24693" data-name="Path 24693" d="M23.48,268h21.3v-.89H23.48Z" transform="translate(-22.97 -264.419)" fill="#8d193c"></path>
                                            </g>
                                        </g>
                                        <g id="Group_73340" data-name="Group 73340" transform="translate(7648.591 -4601.949)">
                                            <path id="Path_25974" data-name="Path 25974" d="M-6671.812,4888.369l1.939-4.2,5.543.721Z" transform="translate(2.243 0.042)" fill="#d1a1ae"></path>
                                            <path id="Path_25975" data-name="Path 25975" d="M-6671.812,4888.369l1.939-4.2,5.543.721Z" transform="translate(2.991 -2.804)" fill="#8d1436"></path>
                                            <path id="Path_25973" data-name="Path 25973" d="M-6671.812,4888.369l1.939-4.2,5.543.721Z" transform="translate(0 -0.706)" fill="#a4435e"></path>
                                        </g>
                                    </g>
                                </svg>