<svg version="1.1" id="Layer_1" xmlns="http://www.w3.org/2000/svg" xmlns:xlink="http://www.w3.org/1999/xlink" x="0px" y="0px" width="18.039px" height="16.161px" viewBox="0 0 18.039 16.161" enable-background="new 0 0 18.039 16.161" xml:space="preserve">
                                        <g id="shutterstock_1344066536_Converted_" transform="translate(0.15 0.151)">
                                            <g id="Path_24694">
                                                <path fill="#8D193C" d="M16.619,8.559V8.55h-0.31V6.49c-0.051-1.16-0.99-2.06-2.15-2.06h-0.49l-0.09-1.12
                                                                        c-0.01-0.11-0.07-0.21-0.15-0.27c-0.09-0.06-0.199-0.08-0.3-0.06l-1.26,0.22c0.07-0.07,0.12-0.18,0.11-0.29l-0.17-1.47
                                                                        c-0.021-0.13-0.101-0.23-0.21-0.28c-0.11-0.06-0.25-0.06-0.341-0.01l-1.08,0.49c0.03-0.07,0.03-0.15,0.021-0.22l-0.49-1.31
                                                                        c-0.05-0.12-0.14-0.2-0.26-0.24c-0.12-0.03-0.24,0-0.35,0.07l-6.02,4.5h-1.08c-1.16,0-2.1,0.9-2.15,2.07v7.45
                                                                        c0.05,1.16,0.99,2.06,2.15,2.06h12.15c1.16,0,2.1-0.899,2.149-2.06v-2.05h0.181c0.76,0,1.38-0.601,1.409-1.36V9.89
                                                                        C17.859,9.18,17.309,8.62,16.619,8.559z M12.85,3.78l0.06,0.66h-3.68L12.85,3.78z M11.1,2.03l0.109,0.96
                                                                        c0.021,0.13,0.11,0.24,0.23,0.29l-5.2,0.93L11.1,2.03z M9.159,0.84l0.3,0.79c0.04,0.11,0.13,0.19,0.24,0.22l-4.76,2.14L9.159,0.84
                                                                        z M14.149,15.269H2.019c-0.74,0-1.35-0.58-1.39-1.32v-2.3h1.79l1.57,1.45c-0.09,0.17-0.14,0.36-0.14,0.54
                                                                        c-0.03,0.36,0.08,0.7,0.31,0.97c0.23,0.271,0.55,0.431,0.9,0.46c0.73,0.061,1.37-0.5,1.43-1.22c0.02-0.35-0.09-0.689-0.32-0.96
                                                                        c-0.23-0.27-0.55-0.43-0.9-0.46h-0.11c-0.22,0-0.43,0.05-0.63,0.15l-1.69-1.561c-0.07-0.07-0.16-0.109-0.27-0.109h-1.94v-0.32
                                                                        h5.52c0.18,0.51,0.67,0.859,1.24,0.859c0.68,0.061,1.28-0.46,1.33-1.13c0.03-0.319-0.08-0.64-0.29-0.89S7.919,9.019,7.589,9
                                                                        c-0.07-0.011-0.11-0.011-0.21,0c-0.56,0-1.04,0.35-1.23,0.859h-5.52V9.54h2.54c0.1,0,0.19-0.04,0.26-0.11l1.7-1.56
                                                                        c0.19,0.1,0.41,0.15,0.64,0.15c0.68-0.05,1.19-0.65,1.13-1.32c-0.05-0.67-0.65-1.2-1.32-1.13c-0.64,0.05-1.14,0.59-1.14,1.22
                                                                        c0,0.2,0.05,0.39,0.14,0.56L3.009,8.8h-2.38V6.51c0.03-0.75,0.64-1.33,1.38-1.33h12.129c0.75,0,1.36,0.58,1.391,1.32v2.05h-1.66
                                                                        c-0.75,0-1.37,0.59-1.4,1.36v0.649c0.03,0.76,0.65,1.351,1.4,1.351h1.65v2.039l0.01,0.07
                                                                        C15.459,14.729,14.859,15.269,14.149,15.269z M4.639,13.66c0-0.131,0.05-0.25,0.14-0.341c0.1-0.09,0.22-0.14,0.35-0.149h0.04
                                                                        c0.12,0.01,0.24,0.069,0.33,0.17c0.08,0.1,0.12,0.22,0.11,0.359c-0.02,0.25-0.23,0.45-0.48,0.45l-0.04-0.01
                                                                        C4.829,14.12,4.639,13.91,4.639,13.66z M6.869,10.21c-0.01-0.141,0.03-0.28,0.13-0.391c0.09-0.109,0.22-0.18,0.37-0.189h0.04
                                                                        c0.28,0,0.52,0.22,0.54,0.5c0.01,0.14-0.04,0.28-0.13,0.39c-0.09,0.11-0.22,0.18-0.37,0.19h-0.07
                                                                        C7.109,10.71,6.879,10.5,6.869,10.21z M5.229,6.78c-0.01-0.15,0.03-0.29,0.13-0.4c0.09-0.11,0.22-0.18,0.37-0.19
                                                                        c0.31-0.02,0.56,0.2,0.58,0.5c0.03,0.3-0.2,0.56-0.49,0.58l-0.08,0.01c-0.12,0-0.24-0.05-0.33-0.12l-0.04-0.03
                                                                        C5.279,7.039,5.229,6.92,5.229,6.78z M17.119,10.54c-0.01,0.35-0.3,0.62-0.68,0.62h-2.54c-0.351,0-0.63-0.271-0.65-0.61v-0.65
                                                                        c0.021-0.34,0.3-0.62,0.68-0.62h2.54c0.351,0,0.641,0.271,0.65,0.62V10.54z"></path>
                                            </g>
                                            <g id="Path_24695">
                                                <path fill="#8D193C" d="M16.739,10.3c0,0.399-0.33,0.729-0.73,0.729c-0.399,0-0.729-0.33-0.729-0.729c0-0.4,0.33-0.73,0.729-0.73
                                                                        C16.409,9.569,16.739,9.899,16.739,10.3z"></path>
                                            </g>
                                        </g>
                                    </svg>