<svg width="34" height="34" viewBox="0 0 34 34" fill="none" xmlns="http://www.w3.org/2000/svg">
<path d="M11.6556 8.43332C10.9573 8.88327 10.3912 9.50341 10.0131 10.2325C9.635 10.9616 9.45795 11.7745 9.49945 12.5909C9.48937 13.3386 9.63825 14.0802 9.93667 14.7688C10.196 15.3775 10.5775 15.9294 11.0586 16.3917C11.5707 16.8564 12.1498 17.245 12.7775 17.5452C13.4135 17.8651 14.0762 18.1317 14.7584 18.342C15.2584 18.4922 15.8218 18.6424 16.4489 18.7926L16.5257 17.4942L21.1361 20.4726L16.193 22.8841L16.2906 21.3145C15.6211 21.283 14.9559 21.1933 14.3027 21.0464C13.6546 20.9147 13.0205 20.7241 12.4086 20.4771C11.9814 20.2874 11.4474 20.012 10.8065 19.651L9 23.8649C9.03893 23.8839 9.28662 24.0309 9.74305 24.3057C10.2146 24.5886 10.702 24.8454 11.203 25.0748C11.9576 25.3843 12.7441 25.6134 13.5489 25.7582C14.0778 25.8671 14.6124 25.9478 15.1503 26H18.5143C19.2874 25.915 20.0495 25.7529 20.7888 25.5163C21.9487 25.1459 22.9819 24.4703 23.7748 23.5637C24.5968 22.6266 25.0328 21.4241 24.9981 20.1902C25.003 19.5735 24.8945 18.961 24.6777 18.3818C24.4927 17.8747 24.2378 17.3947 23.92 16.9549C23.584 16.5248 23.1752 16.1539 22.7113 15.8585C22.2688 15.5588 21.8068 15.2876 21.3282 15.0466C20.8256 14.8116 20.3045 14.6164 19.7699 14.4631C19.1383 14.2734 18.6516 14.1357 18.3099 14.0501C18.0794 13.9922 17.7951 13.9269 17.4647 13.8556L17.4193 15.3643L12.7168 12.53L17.5807 9.96688L17.5277 11.7468C18.3535 11.7978 19.1725 11.9255 19.9735 12.1283C20.8323 12.3068 21.6545 12.6243 22.4063 13.0678L24.2704 8.88244C22.0525 7.61905 19.5244 6.96998 16.9576 7.00494C15.0831 6.94439 13.2341 7.442 11.6556 8.43183" fill="#8D193C"/>
</svg>
